# xmcd
#
# Track frame offsets: 
#        150
#        14846
#        27229
#        44781
#        62085
#        77298
#        96084
#        111488
#        124829
#        141664
#        159993
#        185169
#
# Disc length: 2683 seconds
#
# Revision: 2
# Processed by: cddbd v1.5.2PL0 Copyright (c) Steve Scherf et al.
# Submitted via: ExactAudioCopy v1.3
#
DISCID=af0a790c
DTITLE=Old 97's - The Grand Theatre, Vol. 1
DYEAR=2010
DGENRE=Alternative
TTITLE0=The Grand Theatre
TTITLE1=Every Night Is Friday Night (Without You)
TTITLE2=The Magician
TTITLE3=You Were Born to Be in Battle
TTITLE4=The Dance Class
TTITLE5=Let the Whiskey Take the Reins
TTITLE6=Champaign, Illinois
TTITLE7=A State of Texas
TTITLE8=You Smoke Too Much
TTITLE9=Love Is What You Are
TTITLE10=Please Hold on While the Train Is Moving
TTITLE11=The Beauty Marks
EXTD=
EXTT0=
EXTT1=
EXTT2=
EXTT3=
EXTT4=
EXTT5=
EXTT6=
EXTT7=
EXTT8=
EXTT9=
EXTT10=
EXTT11=
PLAYORDER=
